<mxfile host="Electron" agent="Mozilla/5.0 (Windows NT 10.0; Win64; x64) AppleWebKit/537.36 (KHTML, like Gecko) draw.io/26.0.9 Chrome/128.0.6613.186 Electron/32.2.5 Safari/537.36" version="26.0.9">
  <diagram name="Page-1" id="ImJihVVvyPO_nD5mvGIb">
    <mxGraphModel dx="720" dy="423" grid="1" gridSize="10" guides="1" tooltips="1" connect="1" arrows="1" fold="1" page="1" pageScale="1" pageWidth="827" pageHeight="1169" math="0" shadow="0">
      <root>
        <mxCell id="0" />
        <mxCell id="1" parent="0" />
        <mxCell id="6xH96i3o5u7C2kXrtPYS-5" value="Inicio" style="ellipse;whiteSpace=wrap;html=1;" vertex="1" parent="1">
          <mxGeometry x="340" y="250" width="120" height="80" as="geometry" />
        </mxCell>
        <mxCell id="6xH96i3o5u7C2kXrtPYS-7" value="Fin" style="ellipse;whiteSpace=wrap;html=1;" vertex="1" parent="1">
          <mxGeometry x="340" y="820" width="120" height="80" as="geometry" />
        </mxCell>
        <mxCell id="6xH96i3o5u7C2kXrtPYS-20" style="edgeStyle=orthogonalEdgeStyle;rounded=0;orthogonalLoop=1;jettySize=auto;html=1;exitX=0.5;exitY=1;exitDx=0;exitDy=0;exitPerimeter=0;entryX=0.5;entryY=0;entryDx=0;entryDy=0;" edge="1" parent="1" source="6xH96i3o5u7C2kXrtPYS-11" target="6xH96i3o5u7C2kXrtPYS-14">
          <mxGeometry relative="1" as="geometry" />
        </mxCell>
        <mxCell id="6xH96i3o5u7C2kXrtPYS-11" value="Guardar cambios en la base de datos" style="shape=cylinder3;whiteSpace=wrap;html=1;boundedLbl=1;backgroundOutline=1;size=15;" vertex="1" parent="1">
          <mxGeometry x="367.5" y="590" width="65" height="90" as="geometry" />
        </mxCell>
        <mxCell id="6xH96i3o5u7C2kXrtPYS-18" style="edgeStyle=orthogonalEdgeStyle;rounded=0;orthogonalLoop=1;jettySize=auto;html=1;exitX=0.5;exitY=1;exitDx=0;exitDy=0;exitPerimeter=0;entryX=0.5;entryY=0;entryDx=0;entryDy=0;" edge="1" parent="1" source="6xH96i3o5u7C2kXrtPYS-12" target="6xH96i3o5u7C2kXrtPYS-13">
          <mxGeometry relative="1" as="geometry" />
        </mxCell>
        <mxCell id="6xH96i3o5u7C2kXrtPYS-12" value="Buscar el autor" style="shape=cylinder3;whiteSpace=wrap;html=1;boundedLbl=1;backgroundOutline=1;size=15;" vertex="1" parent="1">
          <mxGeometry x="370" y="370" width="60" height="80" as="geometry" />
        </mxCell>
        <mxCell id="6xH96i3o5u7C2kXrtPYS-13" value="Modificar los datos requeridos" style="rounded=0;whiteSpace=wrap;html=1;" vertex="1" parent="1">
          <mxGeometry x="340" y="490" width="120" height="60" as="geometry" />
        </mxCell>
        <mxCell id="6xH96i3o5u7C2kXrtPYS-21" style="edgeStyle=orthogonalEdgeStyle;rounded=0;orthogonalLoop=1;jettySize=auto;html=1;exitX=0.5;exitY=1;exitDx=0;exitDy=0;entryX=0.5;entryY=0;entryDx=0;entryDy=0;" edge="1" parent="1" source="6xH96i3o5u7C2kXrtPYS-14" target="6xH96i3o5u7C2kXrtPYS-7">
          <mxGeometry relative="1" as="geometry" />
        </mxCell>
        <mxCell id="6xH96i3o5u7C2kXrtPYS-14" value="Confirmar actualizacion exitosa" style="shape=parallelogram;perimeter=parallelogramPerimeter;whiteSpace=wrap;html=1;fixedSize=1;" vertex="1" parent="1">
          <mxGeometry x="322.5" y="720" width="155" height="60" as="geometry" />
        </mxCell>
        <mxCell id="6xH96i3o5u7C2kXrtPYS-16" style="edgeStyle=orthogonalEdgeStyle;rounded=0;orthogonalLoop=1;jettySize=auto;html=1;exitX=0.5;exitY=1;exitDx=0;exitDy=0;exitPerimeter=0;entryX=0.5;entryY=0;entryDx=0;entryDy=0;" edge="1" parent="1" source="6xH96i3o5u7C2kXrtPYS-15" target="6xH96i3o5u7C2kXrtPYS-5">
          <mxGeometry relative="1" as="geometry" />
        </mxCell>
        <mxCell id="6xH96i3o5u7C2kXrtPYS-15" value="Menu Principal" style="verticalLabelPosition=bottom;verticalAlign=top;html=1;shape=mxgraph.flowchart.on-page_reference;" vertex="1" parent="1">
          <mxGeometry x="370" y="140" width="60" height="60" as="geometry" />
        </mxCell>
        <mxCell id="6xH96i3o5u7C2kXrtPYS-17" style="edgeStyle=orthogonalEdgeStyle;rounded=0;orthogonalLoop=1;jettySize=auto;html=1;exitX=0.5;exitY=1;exitDx=0;exitDy=0;entryX=0.5;entryY=0;entryDx=0;entryDy=0;entryPerimeter=0;" edge="1" parent="1" source="6xH96i3o5u7C2kXrtPYS-5" target="6xH96i3o5u7C2kXrtPYS-12">
          <mxGeometry relative="1" as="geometry" />
        </mxCell>
        <mxCell id="6xH96i3o5u7C2kXrtPYS-19" style="edgeStyle=orthogonalEdgeStyle;rounded=0;orthogonalLoop=1;jettySize=auto;html=1;exitX=0.5;exitY=1;exitDx=0;exitDy=0;entryX=0.5;entryY=0;entryDx=0;entryDy=0;entryPerimeter=0;" edge="1" parent="1" source="6xH96i3o5u7C2kXrtPYS-13" target="6xH96i3o5u7C2kXrtPYS-11">
          <mxGeometry relative="1" as="geometry" />
        </mxCell>
      </root>
    </mxGraphModel>
  </diagram>
</mxfile>
